<svg width="297" height="220" viewBox="0 0 297 220" fill="none" xmlns="http://www.w3.org/2000/svg">
<g clip-path="url(#clip0_53173_29627)">
<path d="M189.014 20.3552C221.826 14.3331 250.825 69.5465 279.632 35.9948C295.1 17.972 291.577 -2.13363 285.004 -16.8918L5.70172 -76.5614L-38.8665 132.054C-4.01824 153.132 48.8424 172.729 105.301 148.89C203.819 107.277 156.203 26.3774 189.013 20.3633L189.014 20.3552Z" fill="#FEBD36"/>
<path d="M-1.24418 162.791C-1.39472 162.903 -2.84459 162.458 -3.96109 161.796C-5.16181 161.37 -4.63766 162.236 -3.72418 162.939C-3.66189 162.885 -3.63361 162.832 -2.38097 163.252C-2.77255 162.99 -4.98308 161.916 -3.90865 162.222C-2.27135 162.818 -2.61969 162.828 -1.87228 163.242C-2.45705 162.778 0.281778 163.829 0.0447889 163.397L-1.39471 162.903C-1.40047 162.851 -0.864698 162.991 -1.2361 162.793L-1.24418 162.791Z" fill="#FBCD43"/>
<path d="M145.899 138.667L146.283 138.173C146.099 138.405 145.983 138.55 145.899 138.667Z" fill="#FBCD43"/>
<path d="M142.665 141.79L142.635 141.928C142.758 141.75 142.802 141.666 142.665 141.79Z" fill="#FBCD43"/>
<path d="M66.2866 171.813C67.2158 171.85 68.2556 171.962 68.1236 171.79L67.8243 171.65C67.1927 171.76 66.703 171.8 66.2866 171.813Z" fill="#FBCD43"/>
<path d="M111.714 161.512C111.626 161.527 111.532 161.533 111.444 161.548C111.256 161.677 111.078 161.8 110.918 161.918C111.154 161.799 111.43 161.655 111.714 161.512Z" fill="#FBCD43"/>
<path d="M112.078 160.599L113.246 160.306C112.982 160.359 112.608 160.449 112.078 160.599Z" fill="#FBCD43"/>
<path d="M160.507 118.978C160.583 118.74 160.665 118.512 160.727 118.262C160.141 119.23 160.474 118.852 160.507 118.978Z" fill="#FBCD43"/>
<path d="M26.5156 172.196C27.2856 172.386 27.9142 172.486 28.4621 172.569C27.5243 172.335 26.781 172.1 26.5156 172.196Z" fill="#FBCD43"/>
<path d="M145.97 141.258C146.227 140.966 146.316 140.824 146.286 140.809C146.019 141.108 145.879 141.29 145.97 141.258Z" fill="#FBCD43"/>
<path d="M30.7385 172.861C30.6012 172.832 30.4639 172.802 30.3267 172.773C29.7459 172.725 29.1651 172.677 28.4603 172.578C29.1513 172.742 29.9541 172.897 30.7367 172.869L30.7385 172.861Z" fill="#FBCD43"/>
<path d="M189.263 34.2812C189.322 34.2424 189.392 34.1972 189.451 34.1584C189.458 34.1256 189.377 34.1855 189.263 34.2812Z" fill="#FBCD43"/>
<path d="M214.354 35.4368C214.122 35.3364 213.744 35.1709 213.38 35.0168C213.547 35.1034 213.842 35.2257 214.354 35.4368Z" fill="#FBCD43"/>
<path d="M9.61982 168.214C9.05535 168.033 9.52061 168.201 9.61982 168.214V168.214Z" fill="#FBCD43"/>
<path d="M7.12002 166.629C7.24186 166.655 7.34283 166.66 7.37592 166.624C7.31846 166.655 7.22561 166.652 7.12002 166.629Z" fill="#FBCD43"/>
<path d="M36.6902 172.268C36.6902 172.268 36.7227 172.275 36.739 172.279C36.5618 172.232 36.5926 172.247 36.6902 172.268Z" fill="#FBCD43"/>
<path d="M8.80037 167.861C8.99991 167.954 9.24154 168.048 9.49761 168.154C9.38169 168.103 9.17408 168.008 8.80037 167.861Z" fill="#FBCD43"/>
<path d="M8.88628 167.972C8.69942 167.898 8.5414 167.848 8.40126 167.792C8.3234 167.801 8.37472 167.837 8.88628 167.972Z" fill="#FBCD43"/>
<path d="M10.4001 168.473C10.076 168.37 9.77957 168.256 9.49756 168.154C9.60541 168.202 9.65039 168.229 9.6181 168.222C9.78419 168.274 10.0131 168.348 10.4001 168.473Z" fill="#FBCD43"/>
<path d="M176.485 80.7793C176.485 80.7793 176.519 80.7017 176.528 80.6612C176.596 80.0656 176.54 80.325 176.485 80.7793Z" fill="#FBCD43"/>
<path d="M81.1729 167.85C81.1729 167.85 81.1281 167.858 81.1081 167.871C81.1328 167.876 81.1694 167.866 81.1959 167.863L81.1711 167.858L81.1729 167.85Z" fill="#FBCD43"/>
<path d="M83.2301 167.391C82.3846 167.753 81.8753 167.805 81.1959 167.863L81.9629 168.264L83.2301 167.391Z" fill="#FBCD43"/>
<path d="M152.869 130.463L151.826 131.511C152.724 129.957 153.59 129.024 152.556 129.955C152.712 130.209 151.832 131.326 150.958 132.453C150.518 133.011 150.084 133.579 149.769 134.029C149.433 134.457 149.235 134.788 149.3 134.92L148.564 135.559C148.751 135.354 148.762 135.305 148.947 135.107C147.481 136.319 148.314 136.413 146.615 138.159C146.014 138.76 145.562 139.138 145.899 138.667C145.499 139.158 145.065 139.608 144.65 140.087C144.25 140.459 144.276 140.295 144.685 139.925L142.647 141.955L142.652 141.931C142.417 142.279 141.835 143.027 141.547 143.389C140.948 143.821 141.778 143.1 141.594 143.17C141.245 143.579 140.85 143.927 140.472 144.312C139.868 144.607 140.824 143.692 141.632 142.95C140.165 143.535 140.725 143.917 138.065 145.738L139.169 144.72C138.219 145.093 137.406 145.936 135.986 146.853C136.366 146.697 138.898 145.077 137.667 146.297C137.255 146.565 136.791 147 136.098 147.631C135.971 147.477 135.267 148.047 134.347 148.715L134.25 148.457C133.299 149.236 133.457 149.287 132.941 149.804C131.813 150.58 131.466 150.582 131.113 150.616C129.222 151.721 132.581 150.108 130.393 151.496C128.782 152.355 127.75 153.118 125.959 154.387C124.784 154.908 126.079 154.142 125.633 154.292L124.737 155.008C124.491 155.133 124.538 155.033 124.564 154.988C123.76 155.511 124.616 155.261 123.321 156.027C123.211 156.266 122.461 156.496 121.556 156.819C120.651 157.143 119.593 157.552 118.802 158.053C118.347 158.167 118.936 157.819 118.768 157.774C116.517 158.988 116.835 158.802 114.984 159.838C114.409 160.003 113.833 160.169 113.251 160.324C114.55 160.051 113.061 160.859 111.727 161.532C112.197 161.463 112.604 161.414 112.869 161.361L110.688 162.284C110.405 162.343 110.602 162.173 110.931 161.938C110.787 162.017 110.653 162.09 110.541 162.143C109.703 162.311 110.08 162.044 110.602 161.698C110.889 161.658 111.178 161.609 111.457 161.567C111.953 161.224 112.408 160.872 112.236 160.768C112.1 160.849 111.838 160.971 111.533 161.092C111.663 161.001 111.736 160.932 111.67 160.927C111.586 160.926 111.37 161.066 111.034 161.257L110.439 161.155L110.356 161.307L107.382 162.069C105.369 162.995 103.645 163.949 100.276 164.941C101.067 164.517 100.367 164.553 100.356 164.288C101.343 164.296 102.952 163.521 104.698 163.055C103.786 163.292 103.95 163.116 104.167 163.01C103.164 163.397 102.131 163.727 101.117 164.087C101.131 163.861 100.417 164.123 99.5765 164.223C100.292 164.47 97.3023 165.068 96.045 165.46C95.9366 165.335 96.2192 165.158 97.7805 164.806C95.9926 164.915 95.6568 165.775 93.9012 165.892C94.283 165.804 94.4906 165.781 94.6296 165.683C93.7651 166.015 91.5434 166.337 92.0371 166.121L92.4172 166.041C89.8628 166.537 84.6316 167.47 84.3005 167.874C84.2671 167.833 84.571 167.398 84.7101 167.301C83.2531 167.955 81.7772 168.581 80.3012 169.206C80.6577 168.841 79.0025 168.369 81.11 167.87C80.4905 167.924 79.7315 168 78.4546 168.286C78.8808 168.267 79.5602 168.565 78.9949 168.681C77.3784 168.581 77.8761 168.662 75.9002 168.664C76.5386 168.639 75.9024 169.207 74.9127 169.334C75.0598 169.238 74.7651 168.879 75.1227 168.786L72.713 169.593C73.3145 169.425 72.7655 169.189 72.1945 169.135C72.461 169.192 70.0559 169.423 69.4048 169.547L70.4677 169.511C67.6682 169.811 67.7944 170.525 65.0156 170.846C65.3397 170.712 65.7701 170.16 64.3547 170.264C63.7381 170.582 61.6231 171.748 59.1684 172.173L58.6805 172.086L56.802 172.422C57.9533 171.973 61.1849 170.875 62.9377 170.377C61.8799 170.388 62.6268 170.251 61.0678 170.435C60.5003 170.365 61.8978 170.146 62.3569 170.092L58.7038 170.396C58.8912 170.665 55.9446 170.942 56.102 171.154L60.0337 170.494C60.2246 170.746 57.8218 171.521 55.2201 171.685C54.5551 171.636 55.6729 171.147 55.6158 171.058C55.2917 171.192 53.1733 171.426 52.9293 171.382L54.0159 171.157C52.5712 171.162 51.691 171.686 49.936 171.522C49.3351 171.53 48.1389 171.24 48.0362 171.405C49.0236 171.683 49.2628 172.658 48.6163 172.918C48.404 172.924 45.4332 172.721 44.7487 172.566C43.7607 172.33 46.2229 171.949 45.3803 171.744C45.3468 171.821 44.7995 171.933 44.574 171.961C43.9448 171.903 44.8347 171.729 43.4673 171.767C43.2365 172.057 40.6868 171.741 42.8241 172.011C41.4821 172.089 41.4048 171.937 39.8355 171.932C40.3332 172.131 38.4039 172.507 37.0497 172.523C37.1316 172.456 36.8352 172.342 36.6933 172.294C33.9458 172.114 32.4838 171.844 29.949 171.498C29.7253 171.399 28.5107 171.156 29.0459 171.101C28.6733 171.106 28.3261 171.151 27.5435 171.06C26.0659 170.626 29.2933 171.247 28.1802 170.806C28.1226 170.879 27.6093 170.871 26.9668 170.835C26.3312 170.767 25.5728 170.681 25.0116 170.621C25.1552 170.778 25.7948 170.907 26.54 171.015C27.277 171.122 28.1369 171.127 28.697 171.154C28.6767 171.327 28.1634 171.438 27.3254 171.488C26.4776 171.544 25.3132 171.422 23.9775 171.272C21.8551 170.972 23.1066 170.883 22.7312 170.862C21.7409 170.676 21.0414 170.552 20.4871 170.459C19.9294 170.382 19.5217 170.354 19.13 170.33C18.3486 170.273 17.6496 170.226 16.0549 169.707C14.8369 169.125 16.108 169.261 15.8716 169.024C17.5753 169.388 18.4346 169.792 19.584 170.063L18.1923 169.621C18.7454 169.68 19.8908 169.891 20.4871 170.103C19.9704 169.874 18.3239 169.48 16.4466 169.02C14.5867 168.478 12.4782 167.875 11.0295 167.345C10.485 167.246 9.56346 167.015 9.96196 167.245L10.8974 167.529C11.6944 167.987 9.07204 167.181 10.2203 167.656C8.9336 167.355 7.46353 167.084 5.74665 166.386L5.50387 166.021C5.50905 166.115 6.5927 166.576 7.11464 166.662C6.3372 166.546 4.56042 165.379 3.65493 165.389L4.80429 166.016C3.52974 165.659 1.89009 165.351 0.390063 164.666C0.986932 165.192 0.754563 164.778 1.73611 165.479C0.914901 164.778 5.67679 166.99 4.28061 166.056C4.78408 166.426 5.26041 166.647 5.77715 166.876C6.30715 167.082 6.87752 167.297 7.57821 167.693C7.55689 167.595 7.10014 167.362 8.39891 167.843C8.46697 167.84 8.61577 167.855 8.71439 167.868C8.75476 167.876 8.76916 167.888 8.79973 167.903C8.77551 167.898 8.75301 167.884 8.73053 167.871C8.78705 167.883 8.79512 167.885 8.70631 167.866C8.40699 167.726 8.16421 167.598 8.07944 167.52C8.79172 167.545 10.8627 168.284 11.6113 168.376C12.3899 168.644 11.2566 168.377 11.6603 168.582L12.774 168.743C12.823 168.949 14.7844 169.647 12.8939 169.21L14.5698 169.703C15.0531 169.891 15.6235 170.106 16.1962 170.271C16.7723 170.42 17.3277 170.547 17.7626 170.606C18.5579 170.835 19.8301 170.886 19.1017 170.858C20.0032 171.025 20.8896 171.223 21.7899 171.356L21.8037 171.41C23.1331 171.668 24.5137 171.845 25.9262 172.07C27.3449 172.305 28.8283 172.436 30.3341 172.817C31.2402 172.883 32.1768 172.965 33.6936 173.136L33.9745 173.323C35.1383 173.369 37.4671 173.731 37.9828 173.57C39.2227 174.089 43.6562 173.807 45.7048 173.821L45.7757 173.608C47.1882 173.596 48.5389 173.478 50.2807 173.308L50.1665 173.131C51.6615 172.891 54.0371 173.034 56.4081 172.803C56.2546 172.889 55.6485 172.921 55.2194 172.914C58.0915 173.104 61.1622 172.048 63.7518 172.059C64.3822 171.914 64.8442 171.886 65.301 171.882C65.241 171.886 65.1874 171.9 65.1435 171.907C65.2133 171.897 65.3073 171.891 65.403 171.878C65.6914 171.872 65.9879 171.867 66.3005 171.866C66.0236 171.858 65.7727 171.847 65.5426 171.857C66.0294 171.792 66.7711 171.679 67.5019 171.538L67.8398 171.695C67.9015 171.683 67.9454 171.676 68.0071 171.663C68.7297 171.64 68.5665 171.495 68.1663 171.392C68.5302 171.309 68.8601 171.227 69.1139 171.146C69.7373 171.389 71.0137 170.789 71.8511 171.019C72.3223 170.789 75.491 170.381 75.8302 169.979C75.8637 170.02 76.0759 170.015 75.6848 170.067C76.5021 169.996 77.3147 169.907 78.0334 169.704L78.4129 169.904L80.1282 169.304C81.2199 169.292 81.6813 169.306 80.6495 169.67C83.1792 168.973 82.7252 169.241 84.8593 168.578L84.7791 168.756C85.56 168.618 86.7724 168.199 87.2626 168.236C89.0649 168.256 95.9018 166.684 100.39 165.829C99.412 165.586 102.502 165.509 102.582 165.094C102.868 165.138 103.498 165.036 102.812 165.321C105.039 164.619 106.237 164.545 107.698 163.789C107.988 163.817 107.268 164.104 107.514 164.097C107.684 164.015 108.191 163.776 108.447 163.763C108.693 163.756 108.151 163.962 107.814 164.119C110.085 163.367 110.205 162.961 110.267 162.593C111.458 162.356 112.015 162.119 112.77 161.628C113.2 161.592 113.903 161.463 112.524 161.99C113.322 161.771 117.337 160.324 117.314 160.039C117.577 159.994 118.389 159.591 118.581 159.48C120.306 158.755 120.467 158.713 122.105 157.885L121.628 158.063C122.14 157.444 122.991 157.372 124.271 156.637L124.261 156.685C127.348 155.277 125.521 155.963 128.512 154.45L128.259 154.37C128.299 153.828 130.943 153.071 132.475 151.865C132.267 151.973 132.058 152.081 131.83 152.159C132.63 151.457 134.57 150.914 135.486 150.339C135.695 150.231 135.219 150.604 134.971 150.814C137.398 149.375 135.113 150.386 136.776 149.123C137.171 149.013 136.585 149.701 137.746 148.89C138.365 148.522 140.594 145.914 142.239 144.893C141.843 145.088 141.448 145.275 142.142 144.593C143.206 143.566 145.324 142.112 146.056 140.938C146.214 140.828 146.279 140.799 146.31 140.814C146.507 140.602 146.751 140.332 147.035 140.029C147.297 139.712 147.582 139.366 147.857 139.026C148.406 138.356 148.905 137.717 149.067 137.395C149.371 137.316 149.799 136.933 150.288 136.419C150.772 135.895 151.329 135.26 151.779 134.577C152.731 133.247 153.583 132.022 153.818 132.225C154.523 131.299 155.285 130.42 155.925 129.438L155.927 129.549C157.249 127.747 157.575 127.011 157.905 126.294C158.235 125.898 158.07 126.236 158.074 126.296C159.083 125.012 159.558 124.249 159.973 123.533C160.387 122.816 160.723 122.117 161.308 120.878L161.632 120.744C161.981 120.098 164.252 116.821 165.593 113.904C165.602 113.94 165.602 114.017 165.5 114.258C166.224 112.607 167.259 110.727 168.168 109.082C168.629 108.266 168.998 107.489 169.244 106.813C169.496 106.146 169.639 105.592 169.593 105.218L170.361 102.967C169.098 105.756 170.24 102.425 169.632 103.532C170.065 102.413 171.06 100.761 170.521 102.137L170.394 102.339C170.588 103.007 171.899 98.8475 172.107 99.019C174.281 93.391 176.149 87.808 177.612 82.3418L177.164 82.8985L177.639 80.9918C177.827 80.5066 178.033 80.3727 177.69 81.7399C178.03 81.0584 178.103 79.4132 178.047 79.3588C178.807 76.7082 178.135 80.4877 178.344 79.668L178.584 78.5417L178.498 78.786C178.587 77.8559 178.518 77.7478 178.869 76.1028C179.141 75.0678 179.161 75.6059 179.249 75.1927C179.273 75.1978 179.311 75.0618 179.384 74.5606L179.904 72.1296L179.47 73.0537C179.569 71.9564 179.942 70.7651 179.451 71.838C180.25 70.2716 181.171 62.7578 181.467 61.7702C181.543 60.2274 181.794 58.7388 182.144 56.8988C182.015 57.3457 181.696 57.5741 182.018 55.9905C182.447 56.6669 182.799 53.1239 183.473 51.946C183.222 52.4857 183.437 51.3622 183.651 50.3233C183.856 49.2826 184.06 48.3264 183.662 49.1648C184.031 47.871 183.879 49.135 184.252 48.1809C184.892 45.064 186.15 41.3502 188.208 38.2395C188.185 38.1498 187.731 38.6122 188.107 37.8791C188.59 37.3976 189.132 36.9964 189.655 36.5999C190.169 36.0912 189.837 35.7913 191.078 35.1583C190.894 35.2292 190.611 35.3296 190.993 35.0045C194.106 32.9582 197.939 31.9299 201.806 31.9681C205.67 31.9802 209.525 33.1849 212.936 34.9984C212.019 34.4719 212.676 34.714 213.411 35.0318C212.947 34.7889 213.495 34.872 213.439 34.7413C214.402 35.2521 215.347 35.8098 216.281 36.3739C216.939 36.3788 219.421 37.9597 219.84 37.8967L218.897 37.4495C220.27 37.8191 217.497 35.9388 217.847 35.6832C216.309 35.2952 214.368 33.3554 211.747 32.8972C211.243 32.6114 212.25 32.9538 211.997 32.7556C211.323 32.6709 210.572 32.4341 209.195 31.9198L209.372 31.9236C207.385 31.3465 205.936 31.0117 204.395 30.7586C202.85 30.5218 201.208 30.3406 198.836 30.5371C198.962 30.5809 199.084 30.6409 199.208 30.6928C198.199 30.7908 197.972 30.7506 197.498 30.7935C196.95 31.0662 197.654 30.8945 198.371 30.8189C199.095 30.7109 199.825 30.6891 199.309 30.8923C198.631 30.7474 196.835 30.9738 195.169 31.4991C193.493 31.9968 191.982 32.784 191.471 32.8443C190.109 33.6887 191.969 32.7644 190.634 33.64L190.216 33.7794L189.992 34.1553C189.146 34.7541 188.692 35.0638 188.579 34.9974C188.782 34.8374 189.089 34.4707 189.305 34.2881C189.011 34.4795 188.706 34.7617 188.381 35.0567C188.063 35.3615 187.774 35.7235 187.485 36.0514C186.942 36.7321 186.569 37.3726 186.421 37.5527C186.73 37.1357 187.045 36.7285 187.398 36.338C186.044 38.0908 184.986 40.2796 184.22 42.48C183.453 44.6886 182.89 46.89 182.524 48.8793L182.685 48.6002C182.139 51.6273 182.001 50.9707 181.411 54.2849L181.413 54.1581C181.378 54.8369 181.255 55.7259 181.079 56.6288C181.127 55.7747 180.59 58.1681 180.669 57.0495C180.277 60.3466 180.529 58.689 180.504 60.9035L180.267 61.3783C180.283 62.1358 180.343 62.208 180.115 63.8708C180.206 62.4923 179.712 64.8863 179.788 63.3435C178.899 66.7547 179.27 68.537 178.51 70.0356C178.638 71.6898 179.273 67.0973 179.199 67.9967C179.464 67.2736 179.296 69.3645 179.041 70.437C178.807 71.531 178.132 72.2003 177.594 74.9577C177.653 74.6822 177.624 74.6591 177.683 74.3835C177.366 75.392 177.438 76.441 176.951 77.6504C177.033 78.4136 176.545 79.2753 176.815 79.5532L177.353 77.0331C177.089 78.4679 177.139 79.8936 176.393 82.2C176.376 82.0015 176.454 81.281 176.526 80.7879C176.266 81.4525 176.274 82.1237 176.001 82.811C175.733 82.5249 176.663 79.7496 176.79 78.1668C176.479 78.8715 176.324 81.1006 176.167 80.2537C176.34 81.4599 175.486 82.9297 175.271 84.8413L175.113 84.672C175.059 84.9654 174.984 85.5933 174.828 86.1276L174.855 85.0913C174.636 86.629 173.885 87.8921 173.561 89.3311C174.429 86.373 173.984 88.735 174.488 87.5209C174.112 89.398 173.775 89.8683 173.459 90.4023C173.126 90.9328 172.758 91.5067 172.138 93.5432C172.289 92.991 172.923 91.525 172.727 92.4065C172.437 93.1667 172.032 94.1562 171.778 94.5934C170.862 97.2616 172.136 94.2631 171.828 95.426C171.265 96.2461 171.426 96.7551 171.063 97.9401L170.875 97.8744C169.616 100.842 170.967 98.8262 169.783 101.48C169.854 101.071 169.902 100.649 169.966 100.231C169.805 100.705 169.668 101.192 169.483 101.661L169.394 101.286C168.898 102.858 168.657 103.315 167.966 104.769C168.239 104.48 168.214 105.11 167.655 106.423C167.155 107.265 167.718 105.851 166.901 107.702C166.999 107.24 167.044 106.716 167.562 105.988C167.535 105.88 167.627 105.527 167.601 105.411C167.336 105.863 167.064 106.466 166.832 107.035C166.577 107.599 166.338 108.124 166.183 108.455C166.312 108.203 166.469 107.906 166.574 107.768L165.539 110.521C165.271 110.904 165.373 110.544 165.482 110.195C165.239 110.736 165.143 111.148 164.781 111.935C164.737 111.663 164.558 111.633 165.031 110.488L163.965 113.065C163.811 113.193 163.1 114.228 163.225 113.882C162.383 115.176 161.705 117.361 160.549 119.055C160.527 119.16 160.433 119.361 160.226 119.74C159.693 120.533 159.178 121.287 158.647 122.072C158.108 122.855 157.633 123.736 157.053 124.714L156.069 125.605C155.099 127.101 157.376 124.385 155.755 126.877C154.616 128.65 155.1 127.372 154.61 127.928C154.159 128.891 153.245 130.484 151.856 131.848C152.215 131.315 152.555 130.947 152.91 130.472L152.869 130.463ZM137.685 146.25C137.987 145.942 138.555 145.301 138.866 145.189C138.644 145.675 138.28 145.835 137.685 146.25ZM108.516 162.176C108.795 162.015 109.276 161.898 109.83 161.796C109.454 161.936 109.011 162.07 108.516 162.176ZM15.8853 169.908C15.8853 169.908 15.9177 169.915 15.9338 169.918C16.8462 170.232 16.5238 170.121 15.8853 169.908ZM13.9862 169.274C13.7809 169.247 13.7919 169.274 13.8657 169.324C14.0116 169.313 14.4505 169.432 14.9326 169.586C14.8092 169.492 14.5693 169.39 13.988 169.265L13.9862 169.274ZM179.193 74.9434L179.063 75.3139C179.182 74.4411 179.178 74.6946 179.193 74.9434Z" fill="#FBCD43"/>
<path d="M112.02 160.705C112.148 160.699 112.185 160.724 112.231 160.751C112.377 160.662 112.368 160.626 112.02 160.705Z" fill="#FBCD43"/>
<path d="M160.469 119.115L160.507 119.055C160.507 119.055 160.519 118.998 160.515 118.98L160.469 119.115Z" fill="#FBCD43"/>
<path d="M44.5994 171.645C45.0071 171.673 45.2303 171.695 45.382 171.736C45.4022 171.681 45.213 171.657 44.5994 171.645Z" fill="#FBCD43"/>
<path d="M3.80306 166.276L5.01706 166.68C4.43688 166.471 4.24251 166.353 3.96108 166.208C3.97491 166.262 4.1785 166.416 3.80306 166.276Z" fill="#FBCD43"/>
<path d="M2.93636 165.235C2.90178 165.041 2.13245 164.809 1.28294 164.518L1.43116 164.575C1.10067 164.699 2.02341 164.964 2.93636 165.235Z" fill="#FBCD43"/>
<path d="M1.08453 164.458C0.825002 164.369 0.562578 164.254 0.314592 164.15C0.187703 164.19 0.610461 164.306 1.08453 164.458Z" fill="#FBCD43"/>
<path d="M11.5133 168.677C11.1171 168.516 11.1891 168.812 10.9821 168.674C10.4595 168.749 13.7879 169.214 11.5133 168.677Z" fill="#FBCD43"/>
<path d="M2.45948 164.464L2.68036 164.774L3.20805 164.793L2.45948 164.464Z" fill="#FBCD43"/>
<path d="M9.0277 166.994L7.69204 166.488C7.69204 166.488 7.52363 166.486 7.30736 166.432C8.14072 166.72 9.03808 167.064 9.0277 166.994Z" fill="#FBCD43"/>
<path d="M7.30735 166.432C6.87539 166.28 6.46418 166.15 6.2058 166.095C6.44283 166.171 6.94748 166.338 7.30735 166.432Z" fill="#FBCD43"/>
<path d="M4.3004 165.094L4.67352 165.284L5.60778 165.653L4.3004 165.094Z" fill="#FBCD43"/>
<path d="M23.8385 170.895L25.3772 171.122C25.5462 171.082 25.1333 170.96 24.5594 170.88C24.184 170.859 23.6101 170.779 23.8304 170.894L23.8385 170.895Z" fill="#FBCD43"/>
<path d="M19.3603 169.371C19.7617 169.508 19.7755 169.561 19.986 169.683L20.0881 169.442L19.3522 169.369L19.3603 169.371Z" fill="#FBCD43"/>
<path d="M23.7907 170.25C23.9597 170.21 26.0342 170.458 24.1068 170.114C23.9378 170.154 22.4072 169.929 23.7907 170.25Z" fill="#FBCD43"/>
<path d="M47.0084 172.303L46.6099 172.312L46.6802 172.733L47.0084 172.303Z" fill="#FBCD43"/>
<path d="M67.4295 169.506C65.596 169.631 67.0251 169.818 65.3687 169.905C64.9552 170.062 66.7252 169.839 66.299 169.977C67.3891 169.735 67.9739 169.724 67.4295 169.506Z" fill="#FBCD43"/>
<path d="M66.2926 169.967C66.1236 170.007 65.9367 170.052 65.7401 170.103C66.0584 170.035 66.2015 169.998 66.2926 169.967Z" fill="#FBCD43"/>
<path d="M218.108 37.5437L219.107 38.1638L218.5 37.6867L218.108 37.5437Z" fill="#FBCD43"/>
<path d="M220.255 38.3243L220.37 38.6962L221.111 38.8208C220.867 38.7007 220.398 38.4821 220.253 38.3324L220.255 38.3243Z" fill="#FBCD43"/>
<path d="M134.784 147.816L134.762 147.922C134.942 147.867 135.161 147.711 135.616 147.401L134.784 147.816Z" fill="#FBCD43"/>
<path d="M146.704 137.39L146.51 137.586L147.036 137.377L146.704 137.39Z" fill="#FBCD43"/>
<path d="M154.887 126.869C154.565 127.309 154.243 127.867 153.921 128.307C154.565 127.309 155.219 126.932 154.887 126.869Z" fill="#FBCD43"/>
</g>
<defs>
<clipPath id="clip0_53173_29627">
<rect width="239.168" height="303.967" fill="white" transform="translate(296.227 -14.4941) rotate(102.059)"/>
</clipPath>
</defs>
</svg>
