<svg width="155" height="20" viewBox="0 0 155 20" fill="none" xmlns="http://www.w3.org/2000/svg">
<path d="M12.1858 15.808H5.51381L4.40981 19H0.881813L6.90581 2.224H10.8178L16.8418 19H13.2898L12.1858 15.808ZM11.2738 13.12L8.84981 6.112L6.42581 13.12H11.2738ZM22.4535 7.768C22.8855 7.064 23.4455 6.512 24.1335 6.112C24.8375 5.712 25.6375 5.512 26.5335 5.512V9.04H25.6455C24.5895 9.04 23.7895 9.288 23.2455 9.784C22.7175 10.28 22.4535 11.144 22.4535 12.376V19H19.0935V5.704H22.4535V7.768ZM32.7086 8.464V14.896C32.7086 15.344 32.8126 15.672 33.0206 15.88C33.2446 16.072 33.6126 16.168 34.1246 16.168H35.6846V19H33.5726C30.7406 19 29.3246 17.624 29.3246 14.872V8.464H27.7406V5.704H29.3246V2.416H32.7086V5.704H35.6846V8.464H32.7086ZM39.8053 4.12C39.2133 4.12 38.7173 3.936 38.3173 3.568C37.9333 3.184 37.7413 2.712 37.7413 2.152C37.7413 1.592 37.9333 1.128 38.3173 0.759999C38.7173 0.375999 39.2133 0.183999 39.8053 0.183999C40.3973 0.183999 40.8853 0.375999 41.2693 0.759999C41.6693 1.128 41.8693 1.592 41.8693 2.152C41.8693 2.712 41.6693 3.184 41.2693 3.568C40.8853 3.936 40.3973 4.12 39.8053 4.12ZM41.4613 5.704V19H38.1013V5.704H41.4613ZM43.917 12.352C43.917 10.976 44.197 9.776 44.757 8.752C45.317 7.712 46.093 6.912 47.085 6.352C48.077 5.776 49.213 5.488 50.493 5.488C52.141 5.488 53.501 5.904 54.573 6.736C55.661 7.552 56.389 8.704 56.757 10.192H53.133C52.941 9.616 52.613 9.168 52.149 8.848C51.701 8.512 51.141 8.344 50.469 8.344C49.509 8.344 48.749 8.696 48.189 9.4C47.629 10.088 47.349 11.072 47.349 12.352C47.349 13.616 47.629 14.6 48.189 15.304C48.749 15.992 49.509 16.336 50.469 16.336C51.829 16.336 52.717 15.728 53.133 14.512H56.757C56.389 15.952 55.661 17.096 54.573 17.944C53.485 18.792 52.125 19.216 50.493 19.216C49.213 19.216 48.077 18.936 47.085 18.376C46.093 17.8 45.317 17 44.757 15.976C44.197 14.936 43.917 13.728 43.917 12.352ZM62.5785 1.24V19H59.2185V1.24H62.5785ZM78.2582 12.064C78.2582 12.544 78.2262 12.976 78.1622 13.36H68.4422C68.5222 14.32 68.8582 15.072 69.4502 15.616C70.0422 16.16 70.7702 16.432 71.6342 16.432C72.8822 16.432 73.7702 15.896 74.2982 14.824H77.9222C77.5382 16.104 76.8022 17.16 75.7142 17.992C74.6262 18.808 73.2902 19.216 71.7062 19.216C70.4262 19.216 69.2742 18.936 68.2502 18.376C67.2422 17.8 66.4502 16.992 65.8742 15.952C65.3142 14.912 65.0342 13.712 65.0342 12.352C65.0342 10.976 65.3142 9.768 65.8742 8.728C66.4342 7.688 67.2182 6.888 68.2262 6.328C69.2342 5.768 70.3942 5.488 71.7062 5.488C72.9702 5.488 74.0982 5.76 75.0902 6.304C76.0982 6.848 76.8742 7.624 77.4182 8.632C77.9782 9.624 78.2582 10.768 78.2582 12.064ZM74.7782 11.104C74.7622 10.24 74.4502 9.552 73.8422 9.04C73.2342 8.512 72.4902 8.248 71.6102 8.248C70.7782 8.248 70.0742 8.504 69.4982 9.016C68.9382 9.512 68.5942 10.208 68.4662 11.104H74.7782ZM103.103 2.248L98.4227 19H94.4627L91.3187 7.072L88.0307 19L84.0947 19.024L79.5827 2.248H83.1827L86.1347 15.256L89.5427 2.248H93.2867L96.5027 15.184L99.4787 2.248H103.103ZM111.201 19.216C109.921 19.216 108.769 18.936 107.745 18.376C106.721 17.8 105.913 16.992 105.321 15.952C104.745 14.912 104.457 13.712 104.457 12.352C104.457 10.992 104.753 9.792 105.345 8.752C105.953 7.712 106.777 6.912 107.817 6.352C108.857 5.776 110.017 5.488 111.297 5.488C112.577 5.488 113.737 5.776 114.777 6.352C115.817 6.912 116.633 7.712 117.225 8.752C117.833 9.792 118.137 10.992 118.137 12.352C118.137 13.712 117.825 14.912 117.201 15.952C116.593 16.992 115.761 17.8 114.705 18.376C113.665 18.936 112.497 19.216 111.201 19.216ZM111.201 16.288C111.809 16.288 112.377 16.144 112.905 15.856C113.449 15.552 113.881 15.104 114.201 14.512C114.521 13.92 114.681 13.2 114.681 12.352C114.681 11.088 114.345 10.12 113.673 9.448C113.017 8.76 112.209 8.416 111.249 8.416C110.289 8.416 109.481 8.76 108.825 9.448C108.185 10.12 107.865 11.088 107.865 12.352C107.865 13.616 108.177 14.592 108.801 15.28C109.441 15.952 110.241 16.288 111.201 16.288ZM123.961 7.768C124.393 7.064 124.953 6.512 125.641 6.112C126.345 5.712 127.145 5.512 128.041 5.512V9.04H127.153C126.097 9.04 125.297 9.288 124.753 9.784C124.225 10.28 123.961 11.144 123.961 12.376V19H120.601V5.704H123.961V7.768ZM138.176 19L133.664 13.336V19H130.304V1.24H133.664V11.344L138.128 5.704H142.496L136.64 12.376L142.544 19H138.176ZM149.408 19.216C148.32 19.216 147.344 19.024 146.48 18.64C145.616 18.24 144.928 17.704 144.416 17.032C143.92 16.36 143.648 15.616 143.6 14.8H146.984C147.048 15.312 147.296 15.736 147.728 16.072C148.176 16.408 148.728 16.576 149.384 16.576C150.024 16.576 150.52 16.448 150.872 16.192C151.24 15.936 151.424 15.608 151.424 15.208C151.424 14.776 151.2 14.456 150.752 14.248C150.32 14.024 149.624 13.784 148.664 13.528C147.672 13.288 146.856 13.04 146.216 12.784C145.592 12.528 145.048 12.136 144.584 11.608C144.136 11.08 143.912 10.368 143.912 9.472C143.912 8.736 144.12 8.064 144.536 7.456C144.968 6.848 145.576 6.368 146.36 6.016C147.16 5.664 148.096 5.488 149.168 5.488C150.752 5.488 152.016 5.888 152.96 6.688C153.904 7.472 154.424 8.536 154.52 9.88H151.304C151.256 9.352 151.032 8.936 150.632 8.632C150.248 8.312 149.728 8.152 149.072 8.152C148.464 8.152 147.992 8.264 147.656 8.488C147.336 8.712 147.176 9.024 147.176 9.424C147.176 9.872 147.4 10.216 147.848 10.456C148.296 10.68 148.992 10.912 149.936 11.152C150.896 11.392 151.688 11.64 152.312 11.896C152.936 12.152 153.472 12.552 153.92 13.096C154.384 13.624 154.624 14.328 154.64 15.208C154.64 15.976 154.424 16.664 153.992 17.272C153.576 17.88 152.968 18.36 152.168 18.712C151.384 19.048 150.464 19.216 149.408 19.216Z" fill="#381E72"/>
</svg>
