<svg width="310" height="271" viewBox="0 0 310 271" fill="none" xmlns="http://www.w3.org/2000/svg">
<path d="M402.366 332.294C402.366 332.294 430.648 214.945 333.716 164.118C236.796 113.287 79.7802 237.864 125.714 352.42C171.658 466.961 402.366 332.294 402.366 332.294Z" fill="#381E72"/>
<path d="M244.347 142.913L243.695 143.118C244.005 143.031 244.207 142.966 244.347 142.913Z" fill="#381E72"/>
<path d="M249.197 142.071L249.297 141.937C249.078 142.044 249 142.098 249.197 142.071Z" fill="#381E72"/>
<path d="M289.545 138.584C289.64 138.616 289.734 138.647 289.829 138.679C290.079 138.604 290.304 138.533 290.518 138.466C290.222 138.499 289.889 138.541 289.545 138.584Z" fill="#381E72"/>
<path d="M288.778 139.67L287.483 139.437C287.774 139.505 288.194 139.585 288.778 139.67Z" fill="#381E72"/>
<path d="M218.73 150.71L218.112 151.275C219.252 150.795 218.701 150.88 218.73 150.71Z" fill="#381E72"/>
<path d="M245.748 139.758C245.343 139.877 245.171 139.962 245.195 140.02C245.612 139.899 245.845 139.802 245.748 139.758Z" fill="#381E72"/>
<path d="M145.432 213.138C145.432 213.138 145.328 213.247 145.274 213.296C145.281 213.332 145.354 213.254 145.432 213.138Z" fill="#381E72"/>
<path d="M126.752 235.035C126.893 234.793 127.158 234.412 127.4 234.049C127.269 234.213 127.063 234.507 126.752 235.035Z" fill="#381E72"/>
<path d="M180.07 173.833C180.07 173.833 179.99 173.874 179.946 173.908C179.531 174.42 179.73 174.216 180.07 173.833Z" fill="#381E72"/>
<path d="M232.91 145.687L234.522 145.491C232.759 146.385 231.381 146.622 232.919 146.555C232.902 145.65 238.902 144.882 238.939 144.055L240.011 143.992C239.708 144.053 239.681 144.108 239.378 144.169C241.473 144.116 240.739 143.216 243.37 142.817C244.292 142.697 244.946 142.692 244.347 142.912C245.012 142.704 245.669 142.523 246.339 142.339C246.938 142.244 246.809 142.421 246.222 142.513C247.253 142.307 248.281 142.09 249.317 141.908L249.297 141.937C249.724 141.739 250.699 141.38 251.17 141.211C251.975 141.201 250.784 141.363 251 141.434L252.7 140.981C253.432 141.112 252.033 141.492 250.83 141.657C252.561 142.244 252.232 141.226 255.782 141.261C255.246 141.355 254.703 141.477 254.169 141.583C255.28 141.904 256.531 141.603 258.411 141.67C257.962 141.57 254.63 141.365 256.486 140.932C257.029 140.937 257.722 140.874 258.726 140.598C258.772 140.891 259.747 140.722 260.994 140.587L260.948 140.987C262.272 140.735 262.16 140.556 262.932 140.314C264.44 140.227 264.775 140.513 265.136 140.744C267.537 140.643 263.446 140.362 266.281 140.099C268.289 140.115 269.681 139.887 272.074 139.561C273.479 139.646 271.834 139.811 272.346 139.91L273.585 139.55C273.886 139.54 273.794 139.647 273.74 139.695C274.783 139.55 273.811 139.29 275.462 139.162C275.909 138.745 278.862 139.707 280.895 139.276C281.396 139.39 280.652 139.514 280.797 139.674C283.606 139.404 283.198 139.447 285.512 139.099L287.459 139.442C286.038 139.082 287.889 138.814 289.521 138.589C289.021 138.424 288.59 138.283 288.296 138.203C289.16 138.169 290.035 138.133 290.894 138.138C291.201 138.228 290.935 138.345 290.496 138.483C290.668 138.461 290.84 138.439 290.976 138.425C291.888 138.634 291.398 138.832 290.726 139.004C290.415 138.902 290.117 138.798 289.807 138.696C289.157 138.914 288.548 139.149 288.672 139.389C288.841 139.355 289.164 139.328 289.516 139.321C289.351 139.379 289.234 139.428 289.307 139.476C289.392 139.522 289.666 139.443 290.093 139.37L290.643 139.853L290.798 139.683L294.13 140.204C295.348 140.049 296.485 139.935 297.809 139.81C299.136 139.696 300.637 139.637 302.552 139.822C301.57 140.018 302.286 140.316 302.184 140.69C301.202 140.129 299.23 140.485 297.273 140.219C298.299 140.368 298.054 140.53 297.782 140.559C298.968 140.562 300.149 140.541 301.33 140.583C301.213 140.883 302.04 140.92 302.935 141.17C302.329 140.471 305.603 141.079 307.043 141.157C307.089 141.388 306.723 141.511 304.999 141.212C306.837 141.955 307.584 140.898 309.388 141.597C308.959 141.532 308.743 141.461 308.556 141.536C309.582 141.496 311.958 142.093 311.357 142.175L310.937 142.095C312.324 142.411 314.449 142.819 316.277 143.135C318.1 143.49 319.655 143.697 319.929 143.491C319.943 143.564 319.417 144.022 319.228 144.085C321.013 143.867 322.785 143.778 324.599 143.643C324.046 143.968 325.413 145.448 323.071 145.083C323.711 145.321 324.487 145.608 325.906 145.829C325.479 145.649 324.977 144.905 325.593 145.021C327.12 145.977 326.672 145.626 328.58 146.657C327.952 146.354 328.886 145.915 329.938 146.26C329.744 146.299 329.812 146.954 329.412 146.907C330.353 146.946 331.284 147 332.21 147.093C331.534 146.988 331.909 147.607 332.416 147.997C332.195 147.777 334.627 148.779 335.33 148.954L334.305 148.427C337.161 149.535 337.477 148.589 340.338 149.72C339.933 149.713 339.161 150.207 340.563 150.848C341.346 150.793 344.128 150.515 346.737 151.394L347.122 151.809L349.103 152.51C348.4 152.462 347.105 152.291 345.742 152.097C344.36 151.931 342.934 151.737 341.938 151.545C342.929 152.154 342.134 151.896 343.717 152.564C344.192 152.986 342.75 152.454 342.282 152.258C343.47 152.84 344.697 153.365 345.868 153.988C345.877 153.532 348.782 154.945 348.806 154.562C347.434 154.067 346.091 153.528 344.716 153.083C344.733 152.601 347.49 153.084 350.022 154.395C350.594 154.861 349.199 154.824 349.189 154.965C349.594 154.972 351.697 155.965 351.878 156.181L350.717 155.795C352.019 156.695 353.226 156.555 354.7 157.812C355.26 158.154 356.14 159.214 356.361 159.056C355.673 158.135 356.204 156.755 357.019 156.794C357.237 156.877 359.756 159.009 360.265 159.601C360.985 160.492 358.427 159.489 359.033 160.251C359.13 160.168 359.7 160.37 359.935 160.474C360.466 160.923 359.51 160.622 360.795 161.374C361.23 161.149 363.343 163.022 361.593 161.455C362.89 162.142 362.878 162.333 364.287 163.326C363.989 162.78 366.067 163.462 367.354 164.227C367.221 164.253 367.41 164.569 367.502 164.714C369.967 166.454 371.06 167.698 373.249 169.443C373.385 169.681 374.357 170.634 373.795 170.406C374.161 170.598 374.539 170.724 375.213 171.258C375.719 171.964 375.351 171.634 374.934 171.313C374.505 170.996 374.035 170.661 374.386 171.221C374.646 171.068 376.292 172.43 377.305 173.148C377.264 172.626 375.266 171.146 374.173 170.532C374.335 170.336 374.927 170.457 375.776 170.856C376.605 171.283 377.681 172.001 378.857 172.901C380.692 174.389 379.383 173.83 379.742 174.049C381.363 175.541 382.171 176.048 382.896 176.521C383.63 176.98 384.273 177.419 385.429 178.853C386.212 180.121 384.999 179.355 385.055 179.76C383.63 178.493 383.147 177.53 382.221 176.618L383.227 177.867C382.728 177.513 381.766 176.671 381.351 176.111C381.962 177.212 386.621 181.351 388.567 184.153C389.045 184.524 389.828 185.225 389.6 184.779L388.853 184.007C388.393 183.091 390.468 185.274 389.668 184.173C390.756 185.141 392.099 186.121 393.226 187.851L393.17 188.391C393.226 188.292 392.518 187.21 392.077 186.832C392.732 187.395 393.614 189.602 394.579 190.014L393.895 188.739C394.933 189.767 396.409 190.91 397.383 192.443C397.204 191.546 397.119 192.13 396.661 190.847C396.928 192.055 393.801 187.194 394.467 188.952C394.034 187.601 393.234 187.004 392.461 185.406C392.398 185.532 392.684 186.017 391.717 184.836C391.649 184.811 391.503 184.714 391.416 184.656C391.385 184.625 391.38 184.6 391.348 184.569C391.353 184.593 391.382 184.612 391.387 184.637C391.329 184.598 391.317 184.6 391.392 184.661C391.593 184.974 391.734 185.236 391.76 185.369C391.04 184.983 389.443 183.171 388.8 182.669C388.243 181.96 389.152 182.851 388.936 182.402L387.964 181.638C388.086 181.361 386.711 179.53 388.243 181.015C387.831 180.529 387.407 180.047 386.951 179.595C386.266 178.686 385.216 177.533 384.467 176.939C383.876 176.25 382.649 175.536 383.347 175.939C382.605 175.255 381.856 174.598 381.066 173.986L381.09 173.918C378.899 171.909 376.322 170.116 373.941 167.666C373.122 167.098 372.261 166.513 371.006 165.402L370.901 165.007C369.818 164.315 367.905 162.566 367.314 162.444C366.931 161.789 365.702 160.811 364.288 159.921C362.855 159.059 361.294 158.186 360.37 157.538L360.137 157.761C359.485 157.336 358.828 156.95 358.13 156.547C357.403 156.188 356.624 155.826 355.759 155.406L355.73 155.702C354.951 155.404 354.032 154.843 353.036 154.21C352.037 153.564 350.924 152.853 349.731 152.309C349.942 152.293 350.522 152.606 350.915 152.868C349.649 151.897 348.1 151.273 346.584 150.693C345.042 150.169 343.544 149.673 342.329 148.894C341.645 148.69 341.175 148.481 340.748 148.239C340.816 148.263 340.87 148.278 340.923 148.292C340.855 148.268 340.758 148.224 340.649 148.183C340.377 148.023 340.094 147.865 339.793 147.685C340.043 147.863 340.288 148.015 340.511 148.122C340.004 147.921 339.221 147.661 338.43 147.428L338.212 147.03C338.212 147.03 338.103 146.989 338.035 146.964C337.327 146.576 337.385 146.867 337.71 147.231C337.31 147.122 336.942 147.044 336.643 147.003C336.195 146.335 334.58 146.456 333.92 145.68C333.622 145.701 332.645 145.417 331.673 145.157C330.695 144.936 329.713 144.754 329.422 144.938C329.408 144.865 329.199 144.768 329.616 144.899C328.77 144.577 327.924 144.254 327.109 144.151L326.85 143.674C326.176 143.644 325.497 143.654 324.813 143.639C323.722 143.1 323.281 142.847 324.496 142.87C321.598 142.565 322.204 142.381 319.723 142.271L319.896 142.06C319.037 141.866 317.614 141.873 317.146 141.55C316.256 141.072 313.884 140.624 311.147 140.049C308.39 139.565 305.269 139.027 302.796 138.512C303.671 139.359 300.526 137.881 300.254 138.414C299.987 138.215 299.299 138.05 300.131 137.985C297.567 137.904 296.326 137.307 294.524 137.628C294.245 137.432 295.087 137.415 294.837 137.301C294.626 137.318 294.01 137.39 293.758 137.264C293.506 137.138 294.139 137.15 294.558 137.105C291.942 136.946 291.638 137.448 291.42 137.933C290.118 137.6 289.461 137.592 288.486 137.888C288.035 137.713 287.273 137.499 288.903 137.514C287.993 137.444 283.347 137.034 283.243 137.459C282.957 137.352 281.972 137.409 281.73 137.458C279.69 137.411 279.501 137.348 277.498 137.42L278.051 137.473C277.265 137.958 276.387 137.603 274.762 137.675L274.803 137.629C271.086 137.388 273.208 137.847 269.536 137.583L269.745 137.87C269.444 138.51 266.486 137.65 264.385 138.057L265.164 138.166C264.029 138.481 261.861 137.539 260.685 137.584C260.425 137.548 261.075 137.456 261.427 137.386C258.347 137.307 261.07 137.81 258.812 138.122C258.376 137.957 259.3 137.533 257.76 137.651C256.972 137.556 253.421 138.845 251.297 138.752C251.782 138.844 252.257 138.951 251.224 139.208C249.633 139.512 246.788 139.286 245.445 140.071C245.229 140.063 245.149 140.042 245.127 139.995C243.922 140.337 241.215 140.99 240.543 141.415C239.19 140.638 233.175 143.667 232.976 142.798C231.749 143.157 230.532 143.501 229.312 143.895L229.375 143.769C227.017 144.404 226.263 144.92 225.525 145.395C224.968 145.506 225.329 145.295 225.356 145.24C221.919 146.215 221.584 146.37 218.977 147.899L218.577 147.727C217.878 148.144 213.607 149.236 210.621 151.143C210.638 151.102 210.669 151.007 210.905 150.859C207.465 152.769 202.122 154.491 201.408 156.159C200.705 156.678 199.975 157.126 199.308 157.7C202.233 156.057 199.108 158.345 200.401 157.81C199.327 158.554 197.367 159.348 198.696 158.428L198.943 158.34C199.133 157.521 195.334 160.41 195.196 160.034C194.502 160.475 193.811 160.928 193.117 161.369C192.426 161.822 191.778 162.305 191.101 162.767C189.76 163.691 188.433 164.624 187.113 165.53C184.496 167.389 182.029 169.369 179.6 171.291L180.449 171.185C179.879 171.614 179.348 172.111 178.809 172.572C178.314 172.872 178.011 172.806 179.173 171.805C178.397 172.149 177.38 173.689 177.424 173.781C175.047 175.642 177.958 172.603 177.259 173.209L176.347 174.072L176.595 173.921C175.964 174.741 176.017 174.944 174.632 176.154C173.703 176.869 173.989 176.345 173.632 176.643C173.615 176.621 173.482 176.711 173.111 177.126L171.138 178.995L172.162 178.5C171.422 179.468 170.321 180.267 171.502 179.679C170.641 180.103 168.744 181.78 167.055 183.554C165.366 185.329 163.782 187.057 163.321 187.401C162.336 188.783 161.249 190.034 159.864 191.559C160.264 191.227 160.764 191.266 159.546 192.555C159.367 191.532 157.105 194.732 155.737 195.459C156.853 194.732 152.578 199.405 154.295 198.218C153.303 199.311 154.004 198.087 153.131 198.829C151.083 201.709 148.111 204.76 145.505 208.256C145.553 208.373 146.114 207.895 145.689 208.737L143.872 210.247C143.399 210.971 143.898 211.263 142.654 212.293C142.858 212.176 143.173 211.987 142.853 212.467C137.347 219.001 133.022 226.836 127.41 233.467C128.235 232.608 127.825 233.27 127.33 234.012C127.694 233.561 127.551 234.17 127.737 234.158L125.394 236.946C125.371 237.719 123.282 240.204 123.399 240.723L123.969 239.727C123.517 241.254 125.997 238.515 126.377 239.032C126.88 237.317 129.497 235.711 130.442 232.988C130.883 232.547 130.311 233.531 130.599 233.335C130.782 232.605 131.213 231.863 132.201 230.619L132.15 230.806C134.613 227.099 135.904 225.669 138.915 221.676L138.462 221.804C139.124 220.954 139.325 220.825 139.682 220.464C140.037 219.208 137.898 222.9 138.163 221.7C139.49 220.893 142.57 215.537 143.71 215.184C144.707 213.863 143.142 215.373 144.14 214.052L144.545 213.807L144.601 213.329C145.278 212.488 145.797 212.183 145.935 212.243C145.76 212.442 145.517 212.869 145.362 213.101C146.374 212.105 147.672 209.892 148.019 209.545L146.986 210.747C149.58 207.065 153.146 202.886 155.677 199.329L155.357 199.494C157.303 196.798 157.128 197.501 159.457 194.704L159.394 194.83C159.773 194.2 160.372 193.412 161.047 192.684C160.561 193.475 162.432 191.601 161.765 192.617C163.953 189.747 162.752 191.121 164.014 189.041L164.557 188.794C164.968 188.069 164.929 187.938 166.144 186.573C165.254 187.797 167.197 185.972 166.239 187.361C167.738 186.154 168.611 185.034 169.351 184.13C170.111 183.26 170.705 182.574 171.595 182.232C172.408 180.557 168.978 184.28 169.592 183.502C168.857 183.926 170.293 182.152 171.208 181.364C172.101 180.53 173.252 180.489 175.45 178.361C175.225 178.557 175.237 178.618 175.026 178.824C175.965 178.158 176.547 177.159 177.775 176.422C178.105 175.612 179.15 175.227 178.995 174.703L176.964 176.659C178.071 175.505 178.806 174.073 180.958 172.534C180.861 172.742 180.366 173.358 180.007 173.77C180.671 173.373 181.043 172.706 181.761 172.323C181.87 172.806 179.25 174.652 178.218 176.056C178.973 175.666 180.397 173.642 180.099 174.609C180.346 173.954 180.902 173.453 181.593 172.936C182.287 172.432 183.07 171.873 183.721 171.024L183.784 171.339C184.024 171.09 184.461 170.561 184.941 170.188L184.329 171.167C185.431 169.863 187.005 169.347 188.157 168.235C185.535 170.322 187.35 168.421 186.105 169.136C187.588 167.655 188.211 167.493 188.873 167.272C189.538 167.064 190.275 166.841 192.099 165.431C191.612 165.831 190.091 166.676 190.809 165.978C191.561 165.513 192.565 164.922 193.094 164.728C195.549 162.876 192.546 164.762 193.497 163.84C194.54 163.506 194.666 162.876 195.736 162.044L195.91 162.287C198.957 160.557 196.35 161.266 199.137 159.752L198.229 160.828L199.559 159.844L199.452 160.319C200.813 159.115 201.337 158.897 202.913 158.141C202.45 158.158 202.836 157.564 204.194 156.788C205.206 156.422 203.811 157.331 205.718 156.207C205.371 156.616 205.009 157.08 204.046 157.309C204.01 157.443 203.711 157.717 203.673 157.838C204.769 157.455 206.188 156.479 206.879 156.088C206.605 156.231 206.285 156.396 206.093 156.447C206.964 155.819 207.796 155.124 208.708 154.576C209.215 154.462 208.9 154.714 208.582 154.954C209.152 154.651 209.492 154.331 210.338 153.898C210.227 154.223 210.391 154.417 209.23 155.103L211.832 153.549C212.06 153.554 213.353 153.145 213.035 153.385C213.821 153.089 214.692 152.525 215.64 151.97C216.606 151.437 217.644 150.889 218.697 150.54C218.781 150.46 218.983 150.332 219.407 150.121C221.369 149.402 223.213 149.034 225.447 147.907L226.916 147.879C228.73 147.176 224.94 147.958 227.959 146.788C230.118 145.979 228.888 146.893 229.696 146.769C230.707 146.214 232.507 145.25 234.634 145.04C233.982 145.309 233.443 145.391 232.815 145.592L232.91 145.687ZM256.444 140.915C255.988 141.031 255.089 141.324 254.725 141.207C255.21 140.795 255.637 140.912 256.444 140.915ZM293.051 139.41C292.7 139.48 292.166 139.398 291.567 139.24C292.011 139.252 292.511 139.291 293.051 139.41ZM385.822 178.673L385.778 178.644C385.119 177.805 385.344 178.113 385.822 178.673ZM387.274 180.326C387.463 180.452 387.47 180.425 387.448 180.316C387.286 180.26 386.939 179.913 386.554 179.498C386.612 179.663 386.772 179.896 387.274 180.326ZM173.577 176.932L173.945 176.694C173.293 177.405 173.45 177.184 173.577 176.932Z" fill="#381E72"/>
<path d="M288.88 139.549C288.756 139.498 288.717 139.43 288.693 139.371C288.51 139.408 288.498 139.473 288.88 139.549Z" fill="#381E72"/>
<path d="M218.849 150.611L218.777 150.626C218.777 150.626 218.739 150.683 218.732 150.71L218.849 150.611Z" fill="#381E72"/>
<path d="M123.85 238.817L123.018 239.828L123.659 239.246L123.85 238.817Z" fill="#381E72"/>
<path d="M122.867 241.157L122.358 241.196L122.224 242.042C122.375 241.785 122.654 241.288 122.855 241.159L122.867 241.157Z" fill="#381E72"/>
<path d="M260.084 141.336L260.176 141.229C259.97 141.144 259.672 141.166 259.063 141.212L260.084 141.336Z" fill="#381E72"/>
<path d="M242.848 143.615L243.142 143.569L242.514 143.329L242.848 143.615Z" fill="#381E72"/>
<path d="M228.859 147.693C229.434 147.54 230.072 147.262 230.644 147.097C229.431 147.528 228.568 147.31 228.859 147.693Z" fill="#381E72"/>
</svg>
